<?xml version="1.0" encoding="UTF-8"?>
<svg id="Layer_1" data-name="Layer 1" xmlns="http://www.w3.org/2000/svg" viewBox="0 0 953.8 1040.24">
  <defs>
    <style>
      .cls-1 {
        fill: none;
      }

      .cls-2 {
        fill: #231f20;
      }

      .cls-3 {
        fill: #fff;
      }

      .cls-4 {
        fill: #ec1c24;
      }
    </style>
  </defs>
  <g>
    <path class="cls-3" d="M206.7,850.07c-4.68-9.29-14.05-15.07-24.44-15.07-.45,0-.89.01-1.34.03-4.75.23-9.24,1.66-13.17,4.16-2.3,1.14-4.41,2.6-6.31,4.39-7.71,7.23-13.28,16.12-16.13,25.71-4.75,16.04-2.5,30.71,6.34,41.32,6.09,7.3,14.96,11.87,24.35,12.53.76.05,1.54.08,2.3.08,0,0,0,0,0,0,10.23,0,20.01-4.92,26.83-13.49,6.83-8.58,10.08-19.83,9.39-32.52-.47-8.63-3.1-17.76-7.82-27.14Z"/>
    <path class="cls-3" d="M93.42,847.41c-6.64-3.68-13.94-5.63-21.12-5.63-6.44,0-12.48,1.53-17.95,4.55-3.15,1.74-6.04,3.9-8.62,6.43-3.75,2.62-7.04,5.68-9.8,9.13-8.49,10.61-10.85,25.35-6.17,38.47,5.01,14.03,18.88,23.69,34.51,24.03.32,0,.64.01.97.01h0c9.44,0,18.97-2.91,29.14-8.9,3.55-2.09,8.79-5.54,13.27-11.35,5.49-7.11,7.97-16.2,6.96-25.59-1.34-12.51-9.66-24.74-21.2-31.14Z"/>
    <path class="cls-3" d="M901.52,718.22c1.78-2.96,3.48-5.85,5.08-8.64,1.51-2.65,2.92-5.06,4.22-7.22l1.44,1.22,9.95-26.3c31.86-84.21,39.81-174.11,22.99-259.97-1.3-6.62-2.83-13.58-4.56-20.68l-4.46-18.32c1.11-2.29,2.16-4.53,3.12-6.71l.13-.29.12-.29c6.28-15.4,3.38-30.05-7.77-39.2-4.03-3.3-9.12-6.18-15.38-8.69l-5.15-11.35c-1.47-3.24-3.02-6.55-4.59-9.82l-5.42-11.26c11.67-21.1,18.19-26.78,20.14-28.12l6.07-4.16,1.89-7.11c3.07-11.54-.19-22.51-8.72-29.31-4.03-3.22-8.81-5.76-14.56-7.73-1.18-.5-2.4-.99-3.65-1.47-9.86-4.72-18.48-7.06-26.33-7.17h-.44c-6.09,0-14.38,1.7-22.6,8.72-13.54-17.9-28.41-35.23-44.3-51.58-.96-.98-1.92-1.97-2.89-2.95l-.31-.32-.14-.13c-50.77-51.24-112.29-91.27-182.86-118.98C555.23,13.97,480.98,0,407.82,0c-105.79,0-206.02,28.06-289.83,81.16-34.74,22.01-70.67,44.77-97.48,83.23C6.06,185.11-.99,208.08.11,230.81c1.13,23.27,10.66,44.6,27.57,61.67,2.28,2.3,4.73,4.56,7.29,6.71,17.64,14.83,37.91,22.66,58.62,22.66,5.73,0,11.47-.6,17.19-1.78-13.17,10.82-25.79,22.9-37.69,36.13-18.89,20.99-34.29,42.56-45.77,64.1-12.61,23.67-18.3,44.17-17.37,62.69l.03.67.08.66c2.07,17.6,8.9,29.39,16.53,37.25l-.67,9.25c-2,27.51-.95,55.08,3.13,81.96,3.73,24.58,9.37,48.76,16.76,71.88l4.63,14.49,15.19-.71c2.04-.1,4.14-.14,6.26-.14,1.28,0,2.58.02,3.91.05-.13,9.12,1.57,17.33,5.09,24.72-13.37,5.21-23.95,14.38-30.39,26.56-3.99,7.55-6.03,15.15-6.06,22.57-.05,11.61,4.86,21.57,14.58,29.62,8.71,7.2,20.64,15.58,35.78,16.44.86.05,1.73.07,2.59.07,16.65,0,30.1-9.1,38.77-15.94,9.95-7.85,17.65-17.21,22.87-27.79,5.3-10.73,6.4-22.47,3.17-32.66,4.39-2.1,8.84-4.58,13.37-7.46l3,2.29c19.16,14.63,35.11,32.15,47.42,52.08,4.89,7.92,9.26,16.62,12.99,25.85,5.91,14.63,12.35,23.03,31.17,28.37,20.54,5.82,33.91,10.84,46.73,20.77-1.75-.44-3.52-.75-5.3-.9-.95-.08-1.91-.12-2.85-.12-13.1,0-25.14,7.62-31.43,19.9-1.64,3.19-2.86,6.63-3.73,10.48-5.17,15.08-7.58,28.2-7.36,40.06.35,19.19,7.81,35.03,21.57,45.81,7.07,5.54,15.49,8.47,24.34,8.47h0c13.66,0,26.52-6.99,34.39-18.7,10.9-16.2,8.3-33.93,6.4-46.87l-.21-1.44-.37-2.61c-.44-3.14-.93-6.5-1.57-9.97,1.35,1.55,2.87,2.99,4.61,4.26,6.31,4.6,13.49,5.29,18.24,5.74.64.06,1.56.15,2.08.22,2.18.71,4.51,1.9,6.53,2.98,6.1,3.26,11.9,7.78,19.38,15.09,7.95,7.78,14.78,17.15,20.37,27.92-.76-.06-1.52-.1-2.27-.1-5.81,0-11.55,1.75-16.58,5.06-2.26,1.49-4.36,3.27-6.35,5.4-2.03,1.2-3.86,2.47-5.57,3.89-6.51,5.38-11.08,12.78-12.85,20.82-2.28,10.37.25,21,6.96,29.16,6.1,7.44,15.48,11.88,25.08,11.88h0c2.39,0,4.76-.27,7.06-.82,6-1.41,14.65-5.21,21.83-15.29,2.7-3.79,5.13-8.21,7.03-12.8,3.16-7.64,4.01-15.89,2.37-23.24-.23-1.02-.5-2.01-.8-2.98,10.59.73,21.28,1.12,31.85,1.12,51.68,0,103.06-8.63,152.72-25.66,88.37-30.3,164.79-85.24,221.01-158.9l-10.71-12.54c6.47-4,12.68-9.1,18.58-15.26,1.68-1.76,3.34-3.57,4.98-5.41,5.85,10.22,16.86,17.13,29.47,17.13,18.71,0,33.94-15.22,33.94-33.94,0-16.74-12.19-30.68-28.16-33.44Z"/>
  </g>
  <path class="cls-2" d="M921.17,363.53c3-7.36,2.35-12.82-1.97-16.36-4.32-3.54-11.45-6.62-21.38-9.24-2.91-.71-5.74-.16-8.51,1.65-2.77,1.82-5.14,3.86-7.1,6.13-10.11,11.56-20.63,26.06-31.58,43.51-10.95,17.45-20.28,33.33-27.99,47.65.55-9.46,6.14-28.32,16.77-56.58,10.63-28.26,22.7-56.03,36.2-83.32,13.49-27.29,25.01-44.2,34.56-50.75,1.05-3.94.41-6.85-1.93-8.72-2.34-1.87-5.41-3.42-9.22-4.66-1.41-.61-2.9-1.2-4.47-1.79-7.46-3.65-13.71-5.5-18.73-5.57-5.03-.07-9.74,2.78-14.14,8.55-15.01,20.52-29.73,51.46-44.15,92.79-11.67,33.45-21.99,67.01-30.99,100.65.48-2.11.98-4.23,1.39-6.35,1.01-3.12.4-5.77-1.82-7.99-2.23-2.21-4.86-3.59-7.9-4.12-3.04-.53-5.33.15-6.85,2.02-5.98,18.18-14.49,36.53-25.52,55.06-11.03,18.53-22.36,34.02-33.97,46.46-11.62,12.45-21.11,18.82-28.47,19.1-4.35-.49-6.97-4.5-7.86-12.02-.89-7.52-.78-15.8.33-24.85,1.11-9.05,2.42-16.16,3.95-21.33,5.67,1.62,11.01,2.38,16.02,2.28,5-.1,10.35-1.48,16.03-4.15,11.11-5.95,20.01-15.68,26.7-29.19,6.68-13.51,11.37-26.97,14.04-40.37,2.67-13.4,3.75-22.86,3.25-28.38-.74-7.12-5.16-12.38-13.23-15.78-2.98-1.19-5.78-2.34-8.41-3.42-9.03-4.23-17.01-6.98-23.95-8.24-6.94-1.26-13.9.61-20.88,5.61-10.3,8.13-20.27,21.11-29.92,38.94-8.84,16.33-16.06,34.12-21.79,53.23.98-6.72,1.67-12.53,2.03-17.31.46-24.25-5.74-41.38-18.6-51.37-12.86-9.99-29.74-18.26-50.64-24.83-11.28-3.89-19.18-7.44-23.69-10.62-4.51-3.19-8.5-6.99-11.96-11.41-4.66-4.72-9.9-5.91-15.72-3.55-5.81,2.36-10.91,6.5-15.28,12.42-4.37,5.92-6.56,11.89-6.56,17.89,0,6.01,3.51,10.46,10.53,13.35,11.06,4.59,16.86,16.38,17.42,35.38.56,19.01-2.29,39.96-8.55,62.87-6.26,22.91-14,42.54-23.21,58.91-9.22,16.36-18.15,24.29-26.78,23.77-4.98-1.39-7.77-14.46-8.38-39.21-.6-24.75,6.43-56.17,21.1-94.25,1.24-3.8-.16-7.34-4.19-10.6-4.03-3.26-9.13-5.74-15.31-7.44-6.18-1.7-11.91-2.28-17.17-1.73-5.27.55-8.43,2.79-9.48,6.73-5.64,27.01-14.64,57.95-26.99,92.8-12.36,34.86-25.02,58.36-38,70.51-4.17,2.94-6.24,1.19-6.22-5.23.02-6.42,1.33-15.46,3.93-27.12,2.6-11.66,5.71-23.81,9.32-36.45,3.61-12.64,6.92-23.66,9.95-33.09,3.02-9.42,4.95-15.18,5.79-17.28.94-3.6-1.37-6.91-6.93-9.94-5.56-3.03-11.82-4.97-18.77-5.81-6.96-.84-12.01.29-15.16,3.39-1.75,2.21-3.59,5.83-5.5,10.71-.01,0-.03,0-.04,0-16.58,4.64-32.79,11.69-48.65,21.15-3.51,1.85-7.16,3.8-10.97,5.85-6.46-7.91-14.53-14.26-24.22-19.05-9.69-4.79-19.3-7.13-28.82-7.02.85-.95,1.74-2.07,2.7-3.37,7.65-8.23,16.34-19.33,26.08-33.3,9.74-13.97,16.68-29.08,20.81-45.34,2.14-12.01-.46-23.5-7.79-34.5-7.33-10.99-17.22-19.82-29.66-26.5-12.44-6.68-25.35-9.59-38.71-8.73-19.24,2.25-39.17,10.3-59.79,24.19-20.61,13.88-39.88,30.77-57.78,50.66-17.9,19.89-32.24,39.95-43.01,60.16-10.77,20.22-15.8,37.67-15.07,52.37,1.75,14.88,7.94,25.42,18.59,31.63,10.64,6.21,21.14,8.46,31.5,6.73,10.35-1.72,16.08-7.11,17.19-16.17-14.56,3.84-22.14-.08-22.75-11.75-.61-11.67,4.53-27.54,15.41-47.61,10.88-20.07,26.29-40.9,46.24-62.5-7.07,24.1-15.28,55.61-24.63,94.54-9.36,38.92-16.22,71.22-20.58,96.89-.79,5.72.36,10.31,3.44,13.8,3.07,3.49,6.94,5.95,11.6,7.39,4.01,1.53,7.93,1.85,11.74.94,3.81-.9,7.35-4.15,10.63-9.75,3.08-5.73,8.61-14.66,16.57-26.81,7.96-12.14,17.17-24.76,27.62-37.85,10.45-13.09,20.95-23.93,31.51-32.51,10.55-8.58,19.96-12.26,28.2-11.03,3.6.94,6.34,3.04,8.23,6.29,1.89,3.26,3.11,6.48,3.68,9.69.56,3.21.41,5.2-.46,5.99-23.47,17.85-48.79,42.03-75.95,72.53-27.16,30.5-48.15,61.02-62.97,91.55-9.52,22.01-11.42,38.91-5.69,50.71,5.73,11.81,16.4,17.11,32.01,15.91,15.61-1.2,33.33-10.29,53.15-27.26,31.01-27.88,57.06-60.59,78.14-98.16,21.08-37.57,31.71-72.16,31.88-103.78,10.59-7.82,24.23-15.34,40.85-22.56-4.43,18.53-8.05,37.96-10.77,58.38-3.02,22.59-3.36,39.96-1.03,52.11,2.17,6.75,7.44,11.71,15.82,14.9,8.38,3.18,17.17,4.2,26.38,3.06,9.21-1.14,16.1-4.52,20.68-10.15,7.47-10.5,13.44-19.75,17.91-27.75,4.47-8,8.56-16.06,12.27-24.19,3.69,16.89,14.49,28.76,32.39,35.6,17.89,6.85,33.37,7.15,46.41.91,23-16.63,40.33-47.13,51.99-91.5,11.66-44.37,15.23-81.6,10.7-111.69,16.96,3.37,28.01,10.38,33.16,21.04,5.14,10.67,6.4,24.75,3.78,42.26-1.95,13.29-5.06,29.8-9.33,49.53-7.48,32.23-13.17,61.14-17.05,86.73,0,18.6,5.61,32.64,16.84,42.14,11.22,9.5,22.61,14.65,34.17,15.46,11.56.81,18.88-2.72,21.97-10.59-12.37.87-19.72-6.37-22.03-21.73-2.31-15.36-1.91-34.51,1.22-57.44,2.25-16.48,4.81-32.63,7.66-48.48-.13,3.53-.17,7.02-.06,10.44.58,18.02,5.87,31.29,15.87,39.82,6.74,5.4,16.09,9.88,28.06,13.42,11.97,3.55,22.45,2.42,31.45-3.38,18.82-14.85,36.36-34.73,52.6-59.63,12.07-18.51,21.04-37.44,26.94-56.79-.85,3.31-1.7,6.61-2.53,9.92-10.35,41.63-16.81,73-19.39,94.12.15,4.26,3.44,7.55,9.88,9.87,6.44,2.32,13.04,3.26,19.8,2.82,6.76-.44,10.55-2.86,11.37-7.27.49-7.64,1.82-18.45,4-32.44,12.14-10.05,26.08-15.85,41.81-17.4,15.72-1.54,28.69.37,38.87,5.74,3.03,1.52,5.92.8,8.68-2.17,2.76-2.97,5.05-6.89,6.86-11.77,1.81-4.88,2.94-9.45,3.37-13.71.43-4.26-.03-7.03-1.37-8.31-3.89-2.87-10.39-4.48-19.49-4.84-9.11-.36-18.86.41-29.27,2.31,8.64-11.5,20.11-28.16,34.43-49.98,14.32-21.81,24.74-40.04,31.25-54.69ZM691.02,433.99c4.06-9.65,8.74-19.49,14.07-29.51,5.32-10.01,9.9-17.04,13.73-21.07.36,7.84-.68,17.09-3.1,27.74-2.43,10.65-6.23,20.11-11.4,28.37-5.17,8.27-11.53,12.56-19.04,12.86-.23-2.6,1.68-8.73,5.74-18.39ZM225.15,388.9c-8.96,15.33-18.95,30.71-29.95,46.1-11.01,15.4-20.91,28.86-29.7,40.39-6.61,8.57-11.47,15.06-14.59,19.47,3.23-11.34,6.71-24.29,10.44-38.84,6.95-27.04,14.04-52.05,21.28-75.03,1.1-3.62.36-6.88-2.21-9.79-2.58-2.9-5.87-5.08-9.87-6.53-4-1.45-7.4-2.13-10.18-2.04,12.54-11.76,26.06-21.4,40.56-28.94,14.49-7.53,25.37-10.2,32.61-8,8.29,3.69,11.21,11.32,8.75,22.87-2.45,11.56-8.16,25.01-17.12,40.34ZM214.26,592.68c-12.71,20.51-26.71,40.35-42,59.51-15.3,19.18-27.95,32.14-37.95,38.91,2.03-13.8,9-30.11,20.89-48.93,11.89-18.82,25.47-37.07,40.74-54.76,15.27-17.68,28.96-31.64,41.08-41.85-2.47,10.91-10.06,26.61-22.77,47.12ZM845.38,428.14c-10.85,19.16-21.62,35.88-32.31,50.16,3.57-11.23,10.53-25.94,20.87-44.11,10.35-18.17,21.37-33.74,33.08-46.69-3.58,7.94-10.79,21.49-21.64,40.65Z"/>
  <path class="cls-2" d="M894.81,686.59c-.84-1.17-1.98-2.32-3.43-3.44-1.45-1.12-2.85-1.87-4.19-2.26-1.34-.39-2.35-.19-3.02.59-4.02,5.59-7.93,11.17-11.73,16.76-9.5,13.97-18.71,26.26-27.65,36.87-8.94,10.62-17.82,17.26-26.65,19.94-7.49,1.57-11.54-1.7-12.15-9.8-.62-8.1.92-18.16,4.61-30.17,3.69-12.01,8.3-23.1,13.83-33.27,5.53-10.17,10.7-16.48,15.5-18.94-2.01,3.58-4.11,8.27-6.28,14.08-2.18,5.81-3.33,10.78-3.43,14.92.33,4.58,2.09,8.35,5.28,11.31,3.18,2.96,6.54,4.89,10.06,5.78,3.52.89,6,.56,7.46-1.01-1.23-5.36.76-13.04,5.95-23.04,5.2-10,12.15-19.08,20.87-27.23,1.78-2.01,1.37-4.94-1.26-8.8-2.63-3.85-6.2-7.12-10.72-9.8-.54-.32-1.08-.61-1.61-.87-.56-4.5-1.81-9.25-3.84-14.29-2.9-7.21-7.2-12.43-12.9-15.67-8.38-4.02-20.33-6.98-35.86-8.88,4.47-5.36,8.93-10.06,13.4-14.08,1.9-1.79,2.21-4.02.92-6.7-1.29-2.68-3.77-5.42-7.46-8.21-.56-.44-1.12-.84-1.68-1.17-3.13-2.57-6.23-4.61-9.3-6.12-3.08-1.51-5.9-1.31-8.46.59-6.93,6.03-14.97,17.21-24.13,33.52-39.44-.56-75.41,5.7-107.93,18.77-2.57,1.57-2.93,4.75-1.09,9.55,1.84,4.8,4.61,9.44,8.3,13.91-12.07,8.83-23.27,23.66-33.6,44.5-10.33,20.84-15,43.32-13.99,67.45,2.01,13.41,9.53,23.74,22.54,31.01,13.01,7.26,25.11,9.27,36.28,6.03,8.71-4.25,18.27-15.47,28.66-33.69-2.01,11.51-2.51,21.12-1.51,28.83,2.01,11.51,5.92,20.19,11.73,26.06,5.81,5.87,11.87,9.27,18.18,10.22,6.31.95,11.09-.14,14.33-3.27-11.73-1.79-16.98-13.66-15.75-35.61,1.23-21.96,6.87-47.74,16.93-77.34,10.06-29.61,22.57-56.7,37.54-81.28,18.88,1.68,34.44,5.25,46.68,10.73,3.82,1.71,7.01,3.54,9.55,5.48-.47.53-.99,1.17-1.59,1.98-1.45,1.96-2.91,3.94-4.36,5.95-.67,1.01-1.23,1.84-1.68,2.51-1.79-.89-3.35-1.68-4.69-2.35-2.57-1.34-4.75-2.35-6.53-3.02-1.79-.67-3.69-.78-5.7-.34-9.61,2.57-19.14,10.28-28.57,23.13-9.44,12.85-17.12,27.32-23.04,43.41-5.92,16.09-8.43,30.22-7.54,42.4.78,5.14,4.13,9.92,10.06,14.33,5.92,4.41,12.62,7.74,20.11,9.97,7.48,2.24,14.02,2.74,19.61,1.51,9.5-2.9,18.55-8.85,27.15-17.85,8.6-8.99,16.51-19.02,23.72-30.08,7.21-11.06,13.43-21.17,18.69-30.33,2.23-3.91,4.24-7.32,6.03-10.22.44-.78.25-1.76-.59-2.93ZM673.09,693.62c3.86-6.2,8.13-12.49,12.82-18.85,4.69-6.37,8.55-10.73,11.56-13.07-.56,5.36-2.24,11.62-5.03,18.77-2.79,7.15-6.4,13.3-10.81,18.44-4.41,5.14-9.25,7.43-14.5,6.87.11-1.9,2.09-5.95,5.95-12.15ZM749.1,651.48c-1.45,3.35-3.24,7.32-5.36,11.9-5.81,13.41-12.99,28.74-21.54,46-8.55,17.26-17.37,31.76-26.48,43.49-9.11,11.73-17.35,16.04-24.72,12.9-5.14-2.68-8.94-7.96-11.4-15.84-2.46-7.88-1.9-17.96,1.68-30.25,3.8,1.68,7.4,2.77,10.81,3.27,3.41.5,7.23.14,11.48-1.09,8.27-3.02,15.39-8.85,21.37-17.51,5.98-8.66,10.61-17.46,13.91-26.39,3.29-8.94,5.05-15.36,5.28-19.27.22-5.03-2.29-9.1-7.54-12.23-1.9-1.12-3.69-2.23-5.36-3.35-3.69-2.23-7.04-4.13-10.06-5.7,17.99-9.27,38.82-14.52,62.51-15.75-5.14,9.95-10,19.89-14.58,29.83Z"/>
  <circle class="cls-2" cx="895.75" cy="751.66" r="14.1"/>
  <path class="cls-1" d="M574.92,452.22c.81-4.62,1.52-8.96,2.1-12.94.71-4.76,1.08-9.14,1.14-13.15-.49-.86-1.02-1.71-1.53-2.56-.58,8.16-1.57,16.65-2.9,25.43.41,1.07.81,2.15,1.2,3.23Z"/>
  <path class="cls-4" d="M698.88,500.42c2.39-2.56,4.78-5.28,7.16-8.15-3.34.73-6.63,1.13-9.87,1.2,0,0-1.89.01-2.23,0-.15,1.08-.3,2.23-.45,3.44-.41,3.35-.66,6.56-.75,9.63,1.79-1.65,3.83-3.67,6.13-6.13Z"/>
  <path class="cls-4" d="M203.8,276.93l.46-.03c1.91-.12,3.8-.18,5.69-.18,14.65,0,28.97,3.7,42.56,10.99,14.98,8.04,27.1,18.91,36.03,32.29,9.93,14.89,13.46,30.86,10.5,47.47l-.11.63-.16.62c-.31,1.22-.67,2.42-1.01,3.63,26.64-20.75,56.82-33.58,88.44-37.18,34.99-3.98,66.66-1.04,94.8,8.74,1.59-5.89,4.43-11.64,8.52-17.18,6.33-8.57,14.03-14.74,22.9-18.33,4.05-1.64,8.19-2.48,12.28-2.48,5.87,0,14.57,1.74,22.74,10.01l.71.73.63.8c2.38,3.04,5.14,5.68,8.21,7.84,1.42,1,6.09,3.79,19.02,8.27,22.73,7.16,41.56,16.47,55.97,27.67,5.8,4.51,10.62,9.96,14.44,16.33,10.12-17.76,20.6-30.78,31.93-39.73l.66-.5c7.02-5.03,14.35-8,21.85-8.95-10.23-14.24-21.73-27.85-34.46-40.7-13.8-13.94-29.06-26.97-45.38-38.74-118.66-85.59-287.15-87.36-409.72-4.33-20.25,13.72-39.39,30-56.98,48.28,16.57-8.71,32.98-14.06,49-15.94l.46-.06Z"/>
  <path class="cls-4" d="M743.23,546l-.05-1.39.04-.35c-9.28,10.43-18.92,19.6-28.86,27.44l-.67.53-.71.46c-8.47,5.46-17.93,8.23-28.09,8.23-5.81,0-11.87-.93-18.03-2.75-12.46-3.69-22.54-8.28-30.63-13.97-1.18,14.24-1.01,26.49.5,36.55.58,3.84,1.46,5.88,1.94,6.67.14.01.33.02.56.02.23,0,.47-.01.71-.03l13.56-.96c1.78-2.36,3.94-4.26,6.25-5.67l1.25-.76,1.36-.54c26.9-10.82,56.3-17.29,87.62-19.35,1.24-4.81,2.35-9.64,3.35-14.49-8.51-6.93-9.95-15.51-10.09-19.63Z"/>
  <path class="cls-4" d="M766.71,579.42c1.22-2.01,2.43-3.91,3.62-5.75-1.43-.38-2.84-.85-4.24-1.33-.51,2.39-1.05,4.77-1.61,7.14.75-.02,1.49-.05,2.23-.06Z"/>
  <path class="cls-4" d="M749.22,341.36c19.25,8.09,23.47,22.52,24.3,30.42.46,5.04.13,11.39-1.04,19.57,1.25-.19,2.53-.28,3.84-.28.65,0,1.3.02,1.96.07,6.89-23.55,14.42-47.05,22.49-70.17,13.31-38.14,26.69-67.37,40.73-88.93-14.16-19.27-29.84-37.79-46.96-55.41-1.02-1.05-2.05-2.1-3.08-3.14-.01-.01,0,0,0,0C622.43,2.74,331.25-30.45,128.61,97.92c-33.09,20.96-67.3,42.64-91.82,77.81-24.28,34.84-22.32,75.19,5,102.78,1.87,1.89,3.87,3.73,5.95,5.48,31.59,26.55,69.37,23.63,103.65-8.01,19.45-17.95,42.87-38.37,69.18-53.75,98.43-57.54,204.4-68.43,314.94-32.36,52.81,17.23,101.58,47.4,141.04,87.26,16.35,16.51,30.72,34.25,43.05,52.95,6.69,1.74,13.86,4.4,21.73,8.07,2.47,1.02,5.1,2.09,7.88,3.2Z"/>
  <path class="cls-4" d="M577.13,414.25c-.11,3.06-.28,6.16-.51,9.31.51.85,1.04,1.71,1.53,2.56.06-4.42-.28-8.39-1.02-11.87Z"/>
  <path class="cls-4" d="M505.38,596.14l-1.3.94-1.44.69c-8.61,4.12-18.02,6.21-27.99,6.21s-21.09-2.2-32.44-6.55c-9.9-3.79-18.3-8.97-25.07-15.4-3.14,5.35-6.89,11.2-11.13,17.44,2.56,3.96,5.39,7.62,8.33,10.96,1.12,1.28,2.28,2.52,3.47,3.72,28.72,29.01,74.14,33.27,105.66,9.91,11.09-8.22,20.68-17.37,28.79-27.3-1.18-5.81-1.8-12.02-1.8-18.64v-1.34l.2-1.33c3.93-25.92,9.75-55.56,17.31-88.08,2.83-13.11,5.16-24.88,6.95-35.15-.38-1.08-.79-2.16-1.2-3.23-2.19,14.46-5.36,29.71-9.58,45.77-12.86,48.93-32.08,82.09-58.76,101.38Z"/>
  <path class="cls-4" d="M264.08,435.35c1.53.66,3.06,1.36,4.58,2.12,7.24,3.58,13.82,7.93,19.68,13.01,14.11-8.28,28.68-14.89,43.44-19.69,1.44-2.79,2.91-5.11,4.47-7.08l.68-.86.78-.76c4.06-4,11.42-8.77,23.44-8.77,2.01,0,4.14.13,6.32.4,9.17,1.12,17.62,3.75,25.13,7.84,7.85,4.28,12.08,9.38,14.26,14.21,3.64-12.91,6.65-25.07,9.02-36.42l.1-.47.12-.47c2.96-11.11,12.23-18.52,24.8-19.83,1.88-.19,3.81-.29,5.75-.29,5.73,0,11.77.86,17.97,2.57,8.53,2.35,15.85,5.97,21.77,10.76,9.73,7.87,13.44,19.05,9.91,29.9l-.15.45-.17.44c-13.76,35.72-20.46,65.13-19.92,87.43.09,3.71.23,6.95.4,9.78.49-.82,1-1.69,1.53-2.63,8.45-15,15.7-33.47,21.55-54.87,5.76-21.11,8.43-40.51,7.93-57.67-.15-5.11-1.08-17.26-6.48-19.5-12.14-5-19.67-14.16-21.18-25.49-56.1-22.98-112.97-17.28-161.74,16.66-11.93,8.3-22.87,17.48-32.77,27.4-2.98,5.6-6.29,11.07-9.96,16.34-3.92,5.62-7.66,10.77-11.24,15.49Z"/>
  <path class="cls-4" d="M450.77,648.75c-18.25-4.82-33.15-12.96-44.27-24.2-3.75-3.79-7.09-8-10.05-12.57-7.29,7.12-17.01,11.49-28.97,12.96-3.14.39-6.3.59-9.39.59-8.74,0-17.31-1.57-25.47-4.67-16.99-6.46-23.75-17.74-26.42-26.07l-.33-1.03-.2-1.06c-2.15-11.24-2.42-25.46-.79-43.2-5.65,20.66-14.74,42.18-27.2,64.39-9.87,17.59-20.88,34.25-32.94,49.91,10.96,21.9,25.46,42.25,43.23,60.2,15,15.15,32.19,28.44,51.09,39.51,64.99,38.06,138.84,48.71,207.94,29.99,23.46-6.36,45.86-15.97,66.78-28.49-1.24-3.52-2.16-7.2-2.74-11.03l-.14-.94-.04-.95c-1.13-27.03,4.2-52.63,15.83-76.08,5.19-10.46,10.58-19.55,16.24-27.37-5.77,3.21-12.73,4.93-20.57,4.93-1.4,0-2.86-.05-4.36-.16-15.35-1.08-30.29-7.68-44.41-19.62-6.69-5.66-11.94-12.43-15.74-20.24-28.09,33.04-65.94,46.05-107.07,35.18Z"/>
  <path class="cls-4" d="M891.09,448.52c10.09,1,17.88,3.61,23.72,7.92l.89.66.8.77c8.3,7.91,7.17,19.21,6.8,22.93-.59,5.78-2.06,11.88-4.4,18.15-2.62,7.05-6.15,12.99-10.5,17.66-6.62,7.11-13.8,8.61-18.66,8.61-3.78,0-7.48-.89-10.99-2.65l-.33-.17c-5.29-2.79-12.18-4.21-20.46-4.21-2.64,0-5.46.15-8.39.43-10.06.99-18.96,4.13-27.06,9.55-1.19,8.2-2.02,15-2.49,20.37,3.1,1.74,6.18,3.81,9.19,6.21.71.48,1.42.99,2.14,1.55,5.95,4.53,10.08,9.3,12.61,14.58,2.7,5.64,3.22,11.52,1.7,16.86,4.23,1.33,8.06,2.82,11.51,4.47l.56.27.54.31c9.24,5.26,16.16,13.49,20.59,24.46,1.36,3.38,2.47,6.75,3.33,10.08,4.39,3.32,8.08,7.18,11.04,11.52,7.01,10.29,6.33,19.75,2.78,26.41,2.11.97,4.18,2.24,6.19,3.78.51.39.98.8,1.45,1.2,30.59-80.86,38.26-166.52,22.08-249.14-1.3-6.63-2.77-13.23-4.37-19.8-4.86,8.29-10.37,17.16-16.59,26.64-4.86,7.41-9.43,14.27-13.68,20.56Z"/>
  <path class="cls-4" d="M193.53,406.1c5.78-8.74,11.23-17.49,16.29-26.16,7.96-13.63,13.04-25.43,15.08-35.07.15-.69.25-1.29.32-1.81-2.94.6-8.07,2.21-16.12,6.39-5.41,2.81-10.7,5.98-15.86,9.48.15.16.29.32.43.48,6.65,7.51,8.81,17.25,5.94,26.73-2.04,6.48-4.08,13.14-6.1,19.97Z"/>
  <path class="cls-4" d="M824.34,795.2l-.69.15c-3.23.71-6.64,1.07-10.13,1.07h0c-5.74,0-11.93-.98-18.39-2.91-9.43-2.81-18.06-7.1-25.63-12.74-3.07-2.29-5.74-4.71-8-7.27-.31,2.89-.54,5.7-.69,8.44-.61,10.96.83,15.62,1.52,17.18l34.61,5.27-25.78,24.94c-4.06,3.92-11.26,8.58-22.51,8.58-2.18,0-4.46-.18-6.79-.53-10.16-1.53-19.64-6.67-28.17-15.29-5.49-5.55-9.78-12.59-12.83-21.02-1.87,1.27-3.75,2.36-5.65,3.29l-1.37.67-1.46.42c-5.04,1.46-10.28,2.21-15.56,2.21-11.15,0-22.7-3.29-34.33-9.79-9.46-5.28-16.94-12.06-22.32-20.08-58.63,34.72-125.27,46.31-194.08,33.51-56.57-10.52-107.1-36.92-146.13-76.35-17.69-17.87-32.54-38.03-44.21-59.85-12.3,14.84-25.59,28.69-39.82,41.48l-.32.28c-1.67,1.43-3.33,2.8-4.98,4.13,20.67,15.79,38.52,35.18,52.26,57.42,5.66,9.16,10.48,18.87,14.51,28.85,4.21,10.42,6.78,13.48,18.18,16.71,21.79,6.18,39.72,12.39,57.39,27.33,8.39,7.1,16.62,14.86,22.81,24.01,3.39,5.01,6.64,17.44,11.3,20.84,3.13,2.28,10.03,1.69,13.88,2.85,3.74,1.12,7.18,2.78,10.62,4.62,9.06,4.84,16.59,11.27,23.89,18.41,12.59,12.32,21.99,27.03,28.84,42.95,60.67,4.85,122.16-2.76,181.68-23.17,85.5-29.32,158.08-81.95,211.67-152.17-4.13,2.22-8.34,4.03-12.65,5.35l-.68.21Z"/>
  <path class="cls-4" d="M893.18,319.99c-1.43-3.15-2.9-6.29-4.41-9.42-1.98,4.08-3.98,8.15-5.9,12.26,3.29-1.62,6.78-2.55,10.3-2.84Z"/>
  <path class="cls-4" d="M676.56,744.64c.27.87.54,1.62.8,2.24,1.13-1.09,2.58-2.66,4.33-4.91.45-.58.9-1.17,1.35-1.77-2.43.44-4.8.68-7.12.72.11,1.67.37,2.88.63,3.72Z"/>
  <path class="cls-4" d="M831.2,723.66c.31-.36.61-.73.92-1.09-1.49-.83-2.95-1.76-4.38-2.8-.05.17-.11.35-.16.52-1.16,3.79-2.01,7.11-2.61,10,1.92-1.8,4-3.98,6.23-6.63Z"/>
  <path class="cls-4" d="M88.58,656.24c6.79-13.99,14.86-28.04,24.16-42.07-4.26-.06-8.55-.87-12.76-2.41-7.58-2.44-14.02-6.63-19.15-12.45-4.54-5.14-9.6-14.19-7.7-27.96l.09-.56c1.67-9.81,3.7-20.64,6.11-32.44-2.08.22-4.17.33-6.26.33-9.16,0-18.34-2.19-27.37-6.43-1.89,25.94-.93,51.91,2.96,77.54,3.64,23.95,9.03,46.88,16.04,68.81,5.33-.25,10.67-.21,16,.06,1.73-6.8,4.23-14.03,7.56-21.73l.32-.71Z"/>
  <path class="cls-4" d="M126.7,748.55c-11.9,0-22.19-3.28-30.32-9.42-.03.01-.07.02-.1.03-11.7,2.36-22.32,8.5-28.24,19.73-2.16,4.09-3.74,8.71-3.76,13.39-.03,6.13,2.82,10.47,7.39,14.25,6.87,5.68,15.05,11.4,24.25,11.92,10.54.6,19.99-5.36,27.94-11.63,7.22-5.7,13.3-12.74,17.38-21.01,3.06-6.21,4-13.26,1.61-19.13-3.57.83-7.1,1.39-10.59,1.66-1.91.15-3.76.22-5.55.22Z"/>
  <path class="cls-4" d="M188.97,859c-1.35-2.67-4.11-4.29-7.09-4.14-1.74.09-3.19.72-4.37,1.73-.9.29-1.76.76-2.51,1.46-4.9,4.59-8.76,10.41-10.68,16.88-2.23,7.51-2.78,16.57,2.55,22.97,2.55,3.06,6.52,5.16,10.5,5.44,4.97.35,9.21-2.19,12.22-5.97,4.29-5.4,5.46-12.39,5.1-19.09-.36-6.71-2.73-13.33-5.73-19.29Z"/>
  <path class="cls-4" d="M323.55,891.44c-3.18-4.38-8.12-8.27-13.67-8.75-6.41-.55-12.1,3.53-14.93,9.05-1.09,2.12-1.77,4.41-2.24,6.76-7.32,20.91-12.9,49.09,7.3,64.92,9.87,7.73,23.28,4.36,30.04-5.69,6.91-10.27,4.68-22.92,3.01-34.38-1.61-11.06-2.76-22.61-9.53-31.92Z"/>
  <path class="cls-4" d="M424.68,985.28c-3.52-2.04-7.33-1.8-10.68.4-1.74,1.14-3.23,2.76-4.55,4.52-1.99.96-3.91,2.05-5.64,3.48-3.03,2.51-5.27,5.95-6.11,9.79-.96,4.37.06,8.82,2.92,12.31,2.86,3.49,7.82,5.38,12.26,4.33,4.35-1.02,7.66-3.91,10.21-7.48,1.93-2.71,3.59-5.83,4.86-8.89,1.45-3.49,2.16-7.6,1.33-11.33-.62-2.79-2.04-5.64-4.6-7.13Z"/>
  <path class="cls-4" d="M83.79,864.76c-5.97-3.32-13.59-4.51-19.83-1.06-2.06,1.14-3.89,2.64-5.42,4.39-2.64,1.63-5.05,3.63-7.1,6.2-4.35,5.44-5.28,12.95-2.98,19.41,2.36,6.61,9.44,10.71,16.26,10.86,6.94.15,13.71-2.68,19.62-6.15,2.94-1.73,5.53-3.65,7.63-6.37,2.5-3.24,3.36-7.35,2.94-11.35-.7-6.5-5.47-12.78-11.1-15.91Z"/>
</svg>